<svg width="512" height="512" viewBox="0 0 512 512" fill="none" xmlns="http://www.w3.org/2000/svg">
  <defs>
    <linearGradient id="orangeGradient" x1="256" y1="110" x2="256" y2="480" gradientUnits="userSpaceOnUse">
      <stop offset="0%" stop-color="#FFD700"/>
      <stop offset="50%" stop-color="#FF9800"/>
      <stop offset="100%" stop-color="#FF4500"/>
    </linearGradient>
  </defs>

  <path d="M220 30C200 30 180 50 180 80C180 110 210 120 256 120C320 120 380 90 380 50C380 20 330 10 280 40C265 49 256 70 256 70" fill="#FFF9C4" opacity="0.9"/>

  <path d="M480 295C480 405 380 490 256 490C132 490 32 405 32 295C32 185 132 110 256 110C380 110 480 185 480 295Z" fill="url(#orangeGradient)"/>

  <g fill="#FFF9C4">
    <rect x="180" y="210" width="152" height="32" rx="16"/>
    <rect x="240" y="180" width="32" height="90" rx="16"/>
    <rect x="180" y="265" width="152" height="32" rx="16"/>
    
    <path d="M196 325C185 325 180 330 180 341V410C180 421 185 426 196 426H316C327 426 332 421 332 410V341C332 330 327 325 316 325H196ZM212 357H300V394H212V357Z" fill-rule="evenodd"/>
  </g>
</svg>